<?xml version="1.0" encoding="UTF-8" standalone="no"?>
<!-- Created with Inkscape (http://www.inkscape.org/) -->

<svg
   xmlns:dc="http://purl.org/dc/elements/1.1/"
   xmlns:cc="http://creativecommons.org/ns#"
   xmlns:rdf="http://www.w3.org/1999/02/22-rdf-syntax-ns#"
   xmlns:svg="http://www.w3.org/2000/svg"
   xmlns="http://www.w3.org/2000/svg"
   xmlns:sodipodi="http://sodipodi.sourceforge.net/DTD/sodipodi-0.dtd"
   xmlns:inkscape="http://www.inkscape.org/namespaces/inkscape"
   width="31cm"
   height="33.700001cm"
   viewBox="0 0 310 337"
   version="1.1"
   id="svg8"
   inkscape:version="0.92.1 r15371"
   sodipodi:docname="ksztalty.svg">
  <defs
     id="defs2">
    <inkscape:perspective
       sodipodi:type="inkscape:persp3d"
       inkscape:vp_x="-83.910707 : 289.4851 : 1"
       inkscape:vp_y="121.86936 : 992.54629 : 0"
       inkscape:vp_z="224.36305 : 316.32142 : 1"
       inkscape:persp3d-origin="26.380951 : 100.5119 : 1"
       id="perspective4633" />
  </defs>
  <sodipodi:namedview
     id="base"
     pagecolor="#ffffff"
     bordercolor="#666666"
     borderopacity="1.0"
     inkscape:pageopacity="0.0"
     inkscape:pageshadow="2"
     inkscape:zoom="0.7"
     inkscape:cx="583.9065"
     inkscape:cy="762.56668"
     inkscape:document-units="mm"
     inkscape:current-layer="g4588"
     showgrid="false"
     showguides="false"
     inkscape:window-width="1440"
     inkscape:window-height="841"
     inkscape:window-x="0"
     inkscape:window-y="0"
     inkscape:window-maximized="1"
     units="cm" />
  <metadata
     id="metadata5">
    <rdf:RDF>
      <cc:Work
         rdf:about="">
        <dc:format>image/svg+xml</dc:format>
        <dc:type
           rdf:resource="http://purl.org/dc/dcmitype/StillImage" />
        <dc:title></dc:title>
      </cc:Work>
    </rdf:RDF>
  </metadata>
  <g
     inkscape:label="Layer 1"
     inkscape:groupmode="layer"
     id="layer1"
     transform="translate(0,39.999915)">
    <g
       id="g4588"
       style="opacity:1;fill:#ff6600;fill-opacity:1;fill-rule:nonzero;stroke:none;stroke-width:1.00157475;stroke-miterlimit:4;stroke-dasharray:none;stroke-opacity:1"
       transform="translate(-4.5357143,-18.142857)">
      <g
         sodipodi:type="inkscape:box3d"
         id="g4784"
         inkscape:perspectiveID="#perspective4633"
         inkscape:corner0="-0.57458355 : 0.12767475 : 0 : 1"
         inkscape:corner7="-0.67179704 : 0.10579259 : 0.25 : 1"
         style="opacity:1;fill:#ff6600;fill-opacity:1;fill-rule:nonzero;stroke:none;stroke-width:1.00157475;stroke-miterlimit:4;stroke-dasharray:none;stroke-opacity:1">
        <path
           sodipodi:type="inkscape:box3dside"
           id="path4786"
           inkscape:box3dsidetype="6"
           d="m 216.45583,171.98528 -6.2686,51.05364 6.92593,-82.99228 3.94833,-32.15654 z"
           points="210.18723,223.03892 217.11316,140.04664 221.06149,107.8901 216.45583,171.98528 "
           style="fill:#353564;fill-rule:evenodd;stroke:none;stroke-width:1px;stroke-linecap:butt;stroke-linejoin:round;stroke-opacity:1" />
        <path
           sodipodi:type="inkscape:box3dside"
           id="path4794"
           inkscape:box3dsidetype="13"
           d="m 210.18723,223.03892 85.76814,58.46414 -28.99354,-122.22418 -49.84867,-19.23224 z"
           points="295.95537,281.50306 266.96183,159.27888 217.11316,140.04664 210.18723,223.03892 "
           style="fill:#afafde;fill-rule:evenodd;stroke:none;stroke-width:1px;stroke-linecap:butt;stroke-linejoin:round;stroke-opacity:1" />
        <path
           sodipodi:type="inkscape:box3dside"
           id="path4792"
           inkscape:box3dsidetype="14"
           d="m 304.08072,215.32737 -8.12535,66.17569 -28.99354,-122.22418 4.61216,-37.56304 z"
           points="295.95537,281.50306 266.96183,159.27888 271.57399,121.71584 304.08072,215.32737 "
           style="fill:#d7d7ff;fill-rule:evenodd;stroke:none;stroke-width:1px;stroke-linecap:butt;stroke-linejoin:round;stroke-opacity:1" />
        <path
           sodipodi:type="inkscape:box3dside"
           id="path4796"
           inkscape:box3dsidetype="11"
           d="m 221.06149,107.8901 50.5125,13.82574 -4.61216,37.56304 -49.84867,-19.23224 z"
           points="271.57399,121.71584 266.96183,159.27888 217.11316,140.04664 221.06149,107.8901 "
           style="fill:#e9e9ff;fill-rule:evenodd;stroke:none;stroke-width:1px;stroke-linecap:butt;stroke-linejoin:round;stroke-opacity:1" />
        <path
           sodipodi:type="inkscape:box3dside"
           id="path4788"
           inkscape:box3dsidetype="5"
           d="m 216.45583,171.98528 87.62489,43.34209 -32.50673,-93.61153 -50.5125,-13.82574 z"
           points="304.08072,215.32737 271.57399,121.71584 221.06149,107.8901 216.45583,171.98528 "
           style="fill:#4d4d9f;fill-rule:evenodd;stroke:none;stroke-width:1px;stroke-linecap:butt;stroke-linejoin:round;stroke-opacity:1" />
        <path
           sodipodi:type="inkscape:box3dside"
           id="path4790"
           inkscape:box3dsidetype="3"
           d="m 216.45583,171.98528 87.62489,43.34209 -8.12535,66.17569 -85.76814,-58.46414 z"
           points="304.08072,215.32737 295.95537,281.50306 210.18723,223.03892 216.45583,171.98528 "
           style="fill:#8686bf;fill-rule:evenodd;stroke:none;stroke-width:1px;stroke-linecap:butt;stroke-linejoin:round;stroke-opacity:1" />
      </g>
      <g
         sodipodi:type="inkscape:box3d"
         id="g4704"
         inkscape:perspectiveID="#perspective4633"
         inkscape:corner0="0.10218963 : 0.1102735 : 0 : 1"
         inkscape:corner7="-0.50266459 : 0.097612321 : 0.25 : 1"
         style="opacity:1;fill:#ff6600;fill-opacity:1;fill-rule:nonzero;stroke:none;stroke-width:1.00157475;stroke-miterlimit:4;stroke-dasharray:none;stroke-opacity:1">
        <path
           sodipodi:type="inkscape:box3dside"
           id="path4706"
           inkscape:box3dsidetype="6"
           d="M 32.883929,97.806632 31.48398,109.20831 67.983074,88.799411 69.124194,79.505739 Z"
           points="31.48398,109.20831 67.983074,88.799411 69.124194,79.505739 32.883929,97.806632 "
           style="fill:#353564;fill-rule:evenodd;stroke:none;stroke-width:1px;stroke-linecap:butt;stroke-linejoin:round;stroke-opacity:1" />
        <path
           sodipodi:type="inkscape:box3dside"
           id="path4714"
           inkscape:box3dsidetype="13"
           d="M 31.48398,109.20831 166.30953,210.82152 187.24699,139.9029 67.983074,88.799411 Z"
           points="166.30953,210.82152 187.24699,139.9029 67.983074,88.799411 31.48398,109.20831 "
           style="fill:#afafde;fill-rule:evenodd;stroke:none;stroke-width:1px;stroke-linecap:butt;stroke-linejoin:round;stroke-opacity:1" />
        <path
           sodipodi:type="inkscape:box3dside"
           id="path4716"
           inkscape:box3dsidetype="11"
           d="M 69.124194,79.505739 189.31167,123.08741 187.24699,139.9029 67.983074,88.799411 Z"
           points="189.31167,123.08741 187.24699,139.9029 67.983074,88.799411 69.124194,79.505739 "
           style="fill:#e9e9ff;fill-rule:evenodd;stroke:none;stroke-width:1px;stroke-linecap:butt;stroke-linejoin:round;stroke-opacity:1" />
        <path
           sodipodi:type="inkscape:box3dside"
           id="path4708"
           inkscape:box3dsidetype="5"
           d="M 32.883929,97.806632 169.41208,185.55325 189.31167,123.08741 69.124194,79.505739 Z"
           points="169.41208,185.55325 189.31167,123.08741 69.124194,79.505739 32.883929,97.806632 "
           style="fill:#4d4d9f;fill-rule:evenodd;stroke:none;stroke-width:1px;stroke-linecap:butt;stroke-linejoin:round;stroke-opacity:1" />
        <path
           sodipodi:type="inkscape:box3dside"
           id="path4712"
           inkscape:box3dsidetype="14"
           d="m 169.41208,185.55325 -3.10255,25.26827 20.93746,-70.91862 2.06468,-16.81549 z"
           points="166.30953,210.82152 187.24699,139.9029 189.31167,123.08741 169.41208,185.55325 "
           style="fill:#d7d7ff;fill-rule:evenodd;stroke:none;stroke-width:1px;stroke-linecap:butt;stroke-linejoin:round;stroke-opacity:1" />
        <path
           sodipodi:type="inkscape:box3dside"
           id="path4710"
           inkscape:box3dsidetype="3"
           d="M 32.883929,97.806632 169.41208,185.55325 166.30953,210.82152 31.48398,109.20831 Z"
           points="169.41208,185.55325 166.30953,210.82152 31.48398,109.20831 32.883929,97.806632 "
           style="fill:#8686bf;fill-rule:evenodd;stroke:none;stroke-width:1px;stroke-linecap:butt;stroke-linejoin:round;stroke-opacity:1" />
      </g>
      <g
         sodipodi:type="inkscape:box3d"
         id="g4676"
         inkscape:perspectiveID="#perspective4633"
         inkscape:corner0="0.059440364 : 0.18566116 : 0 : 1"
         inkscape:corner7="-0.26682565 : 0.12401069 : 0.25 : 1"
         style="opacity:1;fill:#ff6600;fill-opacity:1;fill-rule:nonzero;stroke:none;stroke-width:1.00157475;stroke-miterlimit:4;stroke-dasharray:none;stroke-opacity:1">
        <path
           sodipodi:type="inkscape:box3dside"
           id="path4678"
           inkscape:box3dsidetype="6"
           d="M 46.085647,30.090281 38.99388,87.848082 75.25076,70.851019 80.988558,24.12041 Z"
           points="38.99388,87.848082 75.25076,70.851019 80.988558,24.12041 46.085647,30.090281 "
           style="fill:#353564;fill-rule:evenodd;stroke:none;stroke-width:1px;stroke-linecap:butt;stroke-linejoin:round;stroke-opacity:1" />
        <path
           sodipodi:type="inkscape:box3dside"
           id="path4686"
           inkscape:box3dsidetype="13"
           d="M 38.99388,87.848082 91.668583,115.52303 126.56326,85.848357 75.25076,70.851019 Z"
           points="91.668583,115.52303 126.56326,85.848357 75.25076,70.851019 38.99388,87.848082 "
           style="fill:#afafde;fill-rule:evenodd;stroke:none;stroke-width:1px;stroke-linecap:butt;stroke-linejoin:round;stroke-opacity:1" />
        <path
           sodipodi:type="inkscape:box3dside"
           id="path4688"
           inkscape:box3dsidetype="11"
           d="M 80.988558,24.12041 134.20514,23.610213 126.56326,85.848357 75.25076,70.851019 Z"
           points="134.20514,23.610213 126.56326,85.848357 75.25076,70.851019 80.988558,24.12041 "
           style="fill:#e9e9ff;fill-rule:evenodd;stroke:none;stroke-width:1px;stroke-linecap:butt;stroke-linejoin:round;stroke-opacity:1" />
        <path
           sodipodi:type="inkscape:box3dside"
           id="path4680"
           inkscape:box3dsidetype="5"
           d="m 46.085647,30.090281 55.830573,1.972455 32.28892,-8.452523 -53.216582,0.510197 z"
           points="101.91622,32.062736 134.20514,23.610213 80.988558,24.12041 46.085647,30.090281 "
           style="fill:#4d4d9f;fill-rule:evenodd;stroke:none;stroke-width:1px;stroke-linecap:butt;stroke-linejoin:round;stroke-opacity:1" />
        <path
           sodipodi:type="inkscape:box3dside"
           id="path4684"
           inkscape:box3dsidetype="14"
           d="M 101.91622,32.062736 91.668583,115.52303 126.56326,85.848357 134.20514,23.610213 Z"
           points="91.668583,115.52303 126.56326,85.848357 134.20514,23.610213 101.91622,32.062736 "
           style="fill:#d7d7ff;fill-rule:evenodd;stroke:none;stroke-width:1px;stroke-linecap:butt;stroke-linejoin:round;stroke-opacity:1" />
        <path
           sodipodi:type="inkscape:box3dside"
           id="path4682"
           inkscape:box3dsidetype="3"
           d="M 46.085647,30.090281 101.91622,32.062736 91.668583,115.52303 38.99388,87.848082 Z"
           points="101.91622,32.062736 91.668583,115.52303 38.99388,87.848082 46.085647,30.090281 "
           style="fill:#8686bf;fill-rule:evenodd;stroke:none;stroke-width:1px;stroke-linecap:butt;stroke-linejoin:round;stroke-opacity:1" />
      </g>
      <g
         sodipodi:type="inkscape:box3d"
         id="g4690"
         inkscape:perspectiveID="#perspective4633"
         inkscape:corner0="-0.26645386 : 0.16786917 : 0 : 1"
         inkscape:corner7="-0.42544547 : 0.096766459 : 0.25 : 1"
         style="opacity:1;fill:#ff6600;fill-opacity:1;fill-rule:nonzero;stroke:none;stroke-width:1.00157475;stroke-miterlimit:4;stroke-dasharray:none;stroke-opacity:1">
        <path
           sodipodi:type="inkscape:box3dside"
           id="path4692"
           inkscape:box3dsidetype="6"
           d="m 98.86842,56.133468 -11.812811,96.207622 36.054021,-39.02195 8.8102,-71.753353 z"
           points="87.055609,152.34109 123.10963,113.31914 131.91983,41.565787 98.86842,56.133468 "
           style="fill:#353564;fill-rule:evenodd;stroke:none;stroke-width:1px;stroke-linecap:butt;stroke-linejoin:round;stroke-opacity:1" />
        <path
           sodipodi:type="inkscape:box3dside"
           id="path4700"
           inkscape:box3dsidetype="13"
           d="m 87.055609,152.34109 46.054931,35.05599 29.04242,-57.17498 -39.04333,-16.90296 z"
           points="133.11054,187.39708 162.15296,130.2221 123.10963,113.31914 87.055609,152.34109 "
           style="fill:#afafde;fill-rule:evenodd;stroke:none;stroke-width:1px;stroke-linecap:butt;stroke-linejoin:round;stroke-opacity:1" />
        <path
           sodipodi:type="inkscape:box3dside"
           id="path4702"
           inkscape:box3dsidetype="11"
           d="m 131.91983,41.565787 40.74213,3.067389 -10.509,85.588924 -39.04333,-16.90296 z"
           points="172.66196,44.633176 162.15296,130.2221 123.10963,113.31914 131.91983,41.565787 "
           style="fill:#e9e9ff;fill-rule:evenodd;stroke:none;stroke-width:1px;stroke-linecap:butt;stroke-linejoin:round;stroke-opacity:1" />
        <path
           sodipodi:type="inkscape:box3dside"
           id="path4694"
           inkscape:box3dsidetype="5"
           d="m 98.86842,56.133468 49.32379,8.433262 24.46975,-19.933554 -40.74213,-3.067389 z"
           points="148.19221,64.56673 172.66196,44.633176 131.91983,41.565787 98.86842,56.133468 "
           style="fill:#4d4d9f;fill-rule:evenodd;stroke:none;stroke-width:1px;stroke-linecap:butt;stroke-linejoin:round;stroke-opacity:1" />
        <path
           sodipodi:type="inkscape:box3dside"
           id="path4698"
           inkscape:box3dsidetype="14"
           d="m 148.19221,64.56673 -15.08167,122.83035 29.04242,-57.17498 10.509,-85.588924 z"
           points="133.11054,187.39708 162.15296,130.2221 172.66196,44.633176 148.19221,64.56673 "
           style="fill:#d7d7ff;fill-rule:evenodd;stroke:none;stroke-width:1px;stroke-linecap:butt;stroke-linejoin:round;stroke-opacity:1" />
        <path
           sodipodi:type="inkscape:box3dside"
           id="path4696"
           inkscape:box3dsidetype="3"
           d="M 98.86842,56.133468 148.19221,64.56673 133.11054,187.39708 87.055609,152.34109 Z"
           points="148.19221,64.56673 133.11054,187.39708 87.055609,152.34109 98.86842,56.133468 "
           style="fill:#8686bf;fill-rule:evenodd;stroke:none;stroke-width:1px;stroke-linecap:butt;stroke-linejoin:round;stroke-opacity:1" />
      </g>
      <g
         sodipodi:type="inkscape:box3d"
         id="g4718"
         inkscape:perspectiveID="#perspective4633"
         inkscape:corner0="-0.50266459 : 0.1102735 : 0 : 1"
         inkscape:corner7="-0.58160949 : 0.085094524 : 0.25 : 1"
         style="opacity:1;fill:#ff6600;fill-opacity:1;fill-rule:nonzero;stroke:none;stroke-width:1.00157475;stroke-miterlimit:4;stroke-dasharray:none;stroke-opacity:1">
        <path
           sodipodi:type="inkscape:box3dside"
           id="path4720"
           inkscape:box3dsidetype="6"
           d="m 169.41208,185.55325 -6.16997,50.25039 21.96358,-79.27569 4.10598,-33.44054 z"
           points="163.24211,235.80364 185.20569,156.52795 189.31167,123.08741 169.41208,185.55325 "
           style="fill:#353564;fill-rule:evenodd;stroke:none;stroke-width:1px;stroke-linecap:butt;stroke-linejoin:round;stroke-opacity:1" />
        <path
           sodipodi:type="inkscape:box3dside"
           id="path4730"
           inkscape:box3dsidetype="11"
           d="m 189.31167,123.08741 31.73511,11.5076 -4.59095,37.39026 -31.25014,-15.45732 z"
           points="221.04678,134.59501 216.45583,171.98527 185.20569,156.52795 189.31167,123.08741 "
           style="fill:#e9e9ff;fill-rule:evenodd;stroke:none;stroke-width:1px;stroke-linecap:butt;stroke-linejoin:round;stroke-opacity:1" />
        <path
           sodipodi:type="inkscape:box3dside"
           id="path4726"
           inkscape:box3dsidetype="14"
           d="m 216.355,215.72345 -7.33417,59.732 7.435,-103.47018 4.59095,-37.39026 z"
           points="209.02083,275.45545 216.45583,171.98527 221.04678,134.59501 216.355,215.72345 "
           style="fill:#d7d7ff;fill-rule:evenodd;stroke:none;stroke-width:1px;stroke-linecap:butt;stroke-linejoin:round;stroke-opacity:1" />
        <path
           sodipodi:type="inkscape:box3dside"
           id="path4728"
           inkscape:box3dsidetype="13"
           d="m 163.24211,235.80364 45.77872,39.65181 7.435,-103.47018 -31.25014,-15.45732 z"
           points="209.02083,275.45545 216.45583,171.98527 185.20569,156.52795 163.24211,235.80364 "
           style="fill:#afafde;fill-rule:evenodd;stroke:none;stroke-width:1px;stroke-linecap:butt;stroke-linejoin:round;stroke-opacity:1" />
        <path
           sodipodi:type="inkscape:box3dside"
           id="path4722"
           inkscape:box3dsidetype="5"
           d="m 169.41208,185.55325 46.94292,30.1702 4.69178,-81.12844 -31.73511,-11.5076 z"
           points="216.355,215.72345 221.04678,134.59501 189.31167,123.08741 169.41208,185.55325 "
           style="fill:#4d4d9f;fill-rule:evenodd;stroke:none;stroke-width:1px;stroke-linecap:butt;stroke-linejoin:round;stroke-opacity:1" />
        <path
           sodipodi:type="inkscape:box3dside"
           id="path4724"
           inkscape:box3dsidetype="3"
           d="m 169.41208,185.55325 46.94292,30.1702 -7.33417,59.732 -45.77872,-39.65181 z"
           points="216.355,215.72345 209.02083,275.45545 163.24211,235.80364 169.41208,185.55325 "
           style="fill:#8686bf;fill-rule:evenodd;stroke:none;stroke-width:1px;stroke-linecap:butt;stroke-linejoin:round;stroke-opacity:1" />
      </g>
      <g
         sodipodi:type="inkscape:box3d"
         id="g4732"
         inkscape:perspectiveID="#perspective4633"
         inkscape:corner0="-0.4958467 : 0.18484733 : 0 : 1"
         inkscape:corner7="-0.58160949 : 0.1102735 : 0.25 : 1"
         style="opacity:1;fill:#ff6600;fill-opacity:1;fill-rule:nonzero;stroke:none;stroke-width:1.00157475;stroke-miterlimit:4;stroke-dasharray:none;stroke-opacity:1">
        <path
           sodipodi:type="inkscape:box3dside"
           id="path4734"
           inkscape:box3dsidetype="6"
           d="m 184.07441,36.574498 -18.02679,146.816412 20.835,-61.18431 12.05096,-98.147123 z"
           points="166.04762,183.39091 186.88262,122.2066 198.93358,24.059477 184.07441,36.574498 "
           style="fill:#353564;fill-rule:evenodd;stroke:none;stroke-width:1px;stroke-linecap:butt;stroke-linejoin:round;stroke-opacity:1" />
        <path
           sodipodi:type="inkscape:box3dside"
           id="path4744"
           inkscape:box3dsidetype="11"
           d="M 198.93358,24.059477 234.64402,23.854387 221.04678,134.59501 186.88262,122.2066 Z"
           points="234.64402,23.854387 221.04678,134.59501 186.88262,122.2066 198.93358,24.059477 "
           style="fill:#e9e9ff;fill-rule:evenodd;stroke:none;stroke-width:1px;stroke-linecap:butt;stroke-linejoin:round;stroke-opacity:1" />
        <path
           sodipodi:type="inkscape:box3dside"
           id="path4740"
           inkscape:box3dsidetype="14"
           d="M 238.07696,38.812222 216.355,215.72345 221.04678,134.59501 234.64402,23.854387 Z"
           points="216.355,215.72345 221.04678,134.59501 234.64402,23.854387 238.07696,38.812222 "
           style="fill:#d7d7ff;fill-rule:evenodd;stroke:none;stroke-width:1px;stroke-linecap:butt;stroke-linejoin:round;stroke-opacity:1" />
        <path
           sodipodi:type="inkscape:box3dside"
           id="path4742"
           inkscape:box3dsidetype="13"
           d="m 166.04762,183.39091 50.30738,32.33254 4.69178,-81.12844 -34.16416,-12.38841 z"
           points="216.355,215.72345 221.04678,134.59501 186.88262,122.2066 166.04762,183.39091 "
           style="fill:#afafde;fill-rule:evenodd;stroke:none;stroke-width:1px;stroke-linecap:butt;stroke-linejoin:round;stroke-opacity:1" />
        <path
           sodipodi:type="inkscape:box3dside"
           id="path4736"
           inkscape:box3dsidetype="5"
           d="m 184.07441,36.574498 54.00255,2.237724 -3.43294,-14.957835 -35.71044,0.20509 z"
           points="238.07696,38.812222 234.64402,23.854387 198.93358,24.059477 184.07441,36.574498 "
           style="fill:#4d4d9f;fill-rule:evenodd;stroke:none;stroke-width:1px;stroke-linecap:butt;stroke-linejoin:round;stroke-opacity:1" />
        <path
           sodipodi:type="inkscape:box3dside"
           id="path4738"
           inkscape:box3dsidetype="3"
           d="M 184.07441,36.574498 238.07696,38.812222 216.355,215.72345 166.04762,183.39091 Z"
           points="238.07696,38.812222 216.355,215.72345 166.04762,183.39091 184.07441,36.574498 "
           style="fill:#8686bf;fill-rule:evenodd;stroke:none;stroke-width:1px;stroke-linecap:butt;stroke-linejoin:round;stroke-opacity:1" />
      </g>
    </g>
  </g>
</svg>
