<?xml version="1.0" encoding="UTF-8" standalone="no"?>
<!-- Created with Inkscape (http://www.inkscape.org/) -->

<svg
   xmlns:dc="http://purl.org/dc/elements/1.1/"
   xmlns:cc="http://creativecommons.org/ns#"
   xmlns:rdf="http://www.w3.org/1999/02/22-rdf-syntax-ns#"
   xmlns:svg="http://www.w3.org/2000/svg"
   xmlns="http://www.w3.org/2000/svg"
   xmlns:sodipodi="http://sodipodi.sourceforge.net/DTD/sodipodi-0.dtd"
   xmlns:inkscape="http://www.inkscape.org/namespaces/inkscape"
   width="210mm"
   height="297mm"
   viewBox="0 0 210 297"
   version="1.1"
   id="svg8"
   inkscape:version="0.92.1 r15371"
   sodipodi:docname="Kusik_naklejka.svg">
  <defs
     id="defs2">
    <filter
       inkscape:collect="always"
       style="color-interpolation-filters:sRGB"
       id="filter6954"
       x="-0.17419484"
       width="1.3483897"
       y="-0.087401644"
       height="1.1748033">
      <feGaussianBlur
         inkscape:collect="always"
         stdDeviation="2.1551733"
         id="feGaussianBlur6956" />
    </filter>
    <clipPath
       clipPathUnits="userSpaceOnUse"
       id="clipPath6960">
      <path
         inkscape:connector-curvature="0"
         id="path6962"
         d="M 47.24001,132.80171 A 50.000001,50.000001 0 0 0 95.356971,169.24393 50.000001,50.000001 0 0 0 145.35702,119.24388 50.000001,50.000001 0 0 0 95.356971,69.243834 50.000001,50.000001 0 0 0 75.0502,73.621863 Z"
         style="opacity:1;fill:#00bcff;fill-opacity:1;fill-rule:nonzero;stroke:none;stroke-width:0.27174509;stroke-miterlimit:4;stroke-dasharray:none;stroke-opacity:1" />
    </clipPath>
    <clipPath
       clipPathUnits="userSpaceOnUse"
       id="clipPath6964">
      <path
         inkscape:connector-curvature="0"
         id="path6966"
         d="M 178.54492,501.92773 A 188.97638,188.97638 0 0 0 360.4043,639.66211 188.97638,188.97638 0 0 0 549.38086,450.68555 188.97638,188.97638 0 0 0 360.4043,261.70898 a 188.97638,188.97638 0 0 0 -76.75,16.54688 z"
         style="opacity:1;fill:#00bcff;fill-opacity:1;fill-rule:nonzero;stroke:none;stroke-width:1.02706802;stroke-miterlimit:4;stroke-dasharray:none;stroke-opacity:1" />
    </clipPath>
    <clipPath
       clipPathUnits="userSpaceOnUse"
       id="clipPath6968">
      <path
         inkscape:connector-curvature="0"
         id="path6970"
         d="M 47.24001,132.80171 A 50.000001,50.000001 0 0 0 95.356971,169.24393 50.000001,50.000001 0 0 0 145.35702,119.24388 50.000001,50.000001 0 0 0 95.356971,69.243834 50.000001,50.000001 0 0 0 75.0502,73.621863 Z"
         style="opacity:1;fill:#00bcff;fill-opacity:1;fill-rule:nonzero;stroke:none;stroke-width:0.27174509;stroke-miterlimit:4;stroke-dasharray:none;stroke-opacity:1" />
    </clipPath>
    <clipPath
       clipPathUnits="userSpaceOnUse"
       id="clipPath6972">
      <path
         inkscape:connector-curvature="0"
         id="path6974"
         d="M 178.54492,501.92773 A 188.97638,188.97638 0 0 0 360.4043,639.66211 188.97638,188.97638 0 0 0 549.38086,450.68555 188.97638,188.97638 0 0 0 360.4043,261.70898 a 188.97638,188.97638 0 0 0 -76.75,16.54688 z"
         style="opacity:1;fill:#00bcff;fill-opacity:1;fill-rule:nonzero;stroke:none;stroke-width:1.02706802;stroke-miterlimit:4;stroke-dasharray:none;stroke-opacity:1" />
    </clipPath>
    <filter
       inkscape:collect="always"
       style="color-interpolation-filters:sRGB"
       id="filter7316"
       x="-0.070037101"
       width="1.1400742"
       y="-0.035140867"
       height="1.0702817">
      <feGaussianBlur
         inkscape:collect="always"
         stdDeviation="0.86651299"
         id="feGaussianBlur7318" />
    </filter>
    <filter
       inkscape:collect="always"
       style="color-interpolation-filters:sRGB"
       id="filter9682"
       x="-0.068744648"
       width="1.1374893"
       y="-0.072982043"
       height="1.1459641">
      <feGaussianBlur
         inkscape:collect="always"
         stdDeviation="9.6470763"
         id="feGaussianBlur9684" />
    </filter>
    <filter
       inkscape:collect="always"
       style="color-interpolation-filters:sRGB"
       id="filter9802"
       x="-0.0036290374"
       width="1.0072581"
       y="-0.0028828211"
       height="1.0057656">
      <feGaussianBlur
         inkscape:collect="always"
         stdDeviation="0.12311561"
         id="feGaussianBlur9804" />
    </filter>
  </defs>
  <sodipodi:namedview
     id="base"
     pagecolor="#ffffff"
     bordercolor="#666666"
     borderopacity="1.0"
     inkscape:pageopacity="0.0"
     inkscape:pageshadow="2"
     inkscape:zoom="0.7"
     inkscape:cx="160.26129"
     inkscape:cy="654.17872"
     inkscape:document-units="mm"
     inkscape:current-layer="layer1"
     showgrid="false"
     inkscape:window-width="1440"
     inkscape:window-height="841"
     inkscape:window-x="0"
     inkscape:window-y="0"
     inkscape:window-maximized="1" />
  <metadata
     id="metadata5">
    <rdf:RDF>
      <cc:Work
         rdf:about="">
        <dc:format>image/svg+xml</dc:format>
        <dc:type
           rdf:resource="http://purl.org/dc/dcmitype/StillImage" />
        <dc:title></dc:title>
      </cc:Work>
    </rdf:RDF>
  </metadata>
  <g
     inkscape:label="Layer 1"
     inkscape:groupmode="layer"
     id="layer1">
    <path
       style="opacity:1;fill:#00bcff;fill-opacity:1;fill-rule:nonzero;stroke:none;stroke-width:1.02706802;stroke-miterlimit:4;stroke-dasharray:none;stroke-opacity:1"
       d="M 178.54492,501.92773 A 188.97638,188.97638 0 0 0 360.4043,639.66211 188.97638,188.97638 0 0 0 549.38086,450.68555 188.97638,188.97638 0 0 0 360.4043,261.70898 a 188.97638,188.97638 0 0 0 -76.75,16.54688 z"
       id="path4513"
       inkscape:connector-curvature="0"
       transform="scale(0.26458333)"
       clip-path="url(#clipPath6972)" />
    <path
       style="opacity:0.67099998;fill:#000000;fill-opacity:1;fill-rule:nonzero;stroke:none;stroke-width:0.27174509;stroke-miterlimit:4;stroke-dasharray:none;stroke-opacity:1;filter:url(#filter6954)"
       d="M 75.050199,73.621862 47.240009,132.80171 A 50,50 0 0 0 76.933288,87.179689 50,50 0 0 0 75.050199,73.621862 Z"
       id="path4504"
       inkscape:connector-curvature="0"
       clip-path="url(#clipPath6968)" />
    <path
       style="opacity:0.85199998;fill:#000000;fill-opacity:1;fill-rule:nonzero;stroke:none;stroke-width:1.02706802;stroke-miterlimit:4;stroke-dasharray:none;stroke-opacity:1;filter:url(#filter9682)"
       d="M 498.86328,322.41992 A 188.97638,188.97638 0 0 1 541.0957,441.25781 188.97638,188.97638 0 0 1 352.11914,630.23438 188.97638,188.97638 0 0 1 212.58398,568.33594 188.97638,188.97638 0 0 0 360.4043,639.66211 188.97638,188.97638 0 0 0 549.38086,450.68555 188.97638,188.97638 0 0 0 498.86328,322.41992 Z"
       transform="scale(0.26458333)"
       id="path4515"
       inkscape:connector-curvature="0"
       clip-path="url(#clipPath6964)" />
    <flowRoot
       xml:space="preserve"
       id="flowRoot7568"
       style="font-style:normal;font-variant:normal;font-weight:bold;font-stretch:normal;font-size:40px;line-height:125%;font-family:Arial;-inkscape-font-specification:'Arial Bold';text-align:center;letter-spacing:0px;word-spacing:0px;text-anchor:middle;fill:#ececec;fill-opacity:1;stroke:none;stroke-width:1px;stroke-linecap:butt;stroke-linejoin:miter;stroke-opacity:1;filter:url(#filter9802)"
       transform="matrix(0.87336704,0.346501,-0.27038741,0.72047162,-141.61225,-300.92364)"><flowRegion
         id="flowRegion7570"
         style="font-style:normal;font-variant:normal;font-weight:bold;font-stretch:normal;font-family:Arial;-inkscape-font-specification:'Arial Bold';text-align:center;text-anchor:middle;fill:#ececec"><rect
           id="rect7572"
           width="181.42857"
           height="180"
           x="304.28571"
           y="343.94824"
           style="font-style:normal;font-variant:normal;font-weight:bold;font-stretch:normal;font-family:Arial;-inkscape-font-specification:'Arial Bold';text-align:center;text-anchor:middle;fill:#ececec" /></flowRegion><flowPara
         id="flowPara7574"
         style="font-style:normal;font-variant:normal;font-weight:bold;font-stretch:normal;line-height:0.01389401px;font-family:Arial;-inkscape-font-specification:'Arial Bold';text-align:center;text-anchor:middle;fill:#ececec;fill-opacity:1">STI</flowPara><flowPara
         id="flowPara7576"
         style="font-style:normal;font-variant:normal;font-weight:bold;font-stretch:normal;line-height:0.01389401px;font-family:Arial;-inkscape-font-specification:'Arial Bold';text-align:center;text-anchor:middle;fill:#ececec;fill-opacity:1">CKY</flowPara></flowRoot>    <path
       inkscape:connector-curvature="0"
       id="path6028"
       d="M 75.050199,73.621862 47.240009,132.80171 A 50,50 0 0 0 76.933288,87.179689 50,50 0 0 0 75.050199,73.621862 Z"
       style="opacity:1;fill:#00bcff;fill-opacity:1;fill-rule:nonzero;stroke:none;stroke-width:0.27174509;stroke-miterlimit:4;stroke-dasharray:none;stroke-opacity:1;filter:url(#filter7316)"
       clip-path="url(#clipPath6960)" />
  </g>
</svg>
