<?xml version="1.0" encoding="UTF-8" standalone="no"?>
<!-- Created with Inkscape (http://www.inkscape.org/) -->

<svg
   xmlns:dc="http://purl.org/dc/elements/1.1/"
   xmlns:cc="http://creativecommons.org/ns#"
   xmlns:rdf="http://www.w3.org/1999/02/22-rdf-syntax-ns#"
   xmlns:svg="http://www.w3.org/2000/svg"
   xmlns="http://www.w3.org/2000/svg"
   xmlns:xlink="http://www.w3.org/1999/xlink"
   xmlns:sodipodi="http://sodipodi.sourceforge.net/DTD/sodipodi-0.dtd"
   xmlns:inkscape="http://www.inkscape.org/namespaces/inkscape"
   width="210mm"
   height="297mm"
   viewBox="0 0 210 297"
   version="1.1"
   id="svg8"
   enable-background="new"
   inkscape:version="0.92.1 r15371"
   sodipodi:docname="logo.svg">
  <defs
     id="defs2" />
  <sodipodi:namedview
     id="base"
     pagecolor="#ffffff"
     bordercolor="#666666"
     borderopacity="1.0"
     inkscape:pageopacity="0.0"
     inkscape:pageshadow="2"
     inkscape:zoom="0.35"
     inkscape:cx="417.01442"
     inkscape:cy="337.58661"
     inkscape:document-units="mm"
     inkscape:current-layer="flowRoot4531"
     showgrid="false"
     inkscape:window-width="1440"
     inkscape:window-height="841"
     inkscape:window-x="0"
     inkscape:window-y="0"
     inkscape:window-maximized="1" />
  <metadata
     id="metadata5">
    <rdf:RDF>
      <cc:Work
         rdf:about="">
        <dc:format>image/svg+xml</dc:format>
        <dc:type
           rdf:resource="http://purl.org/dc/dcmitype/StillImage" />
        <dc:title />
      </cc:Work>
    </rdf:RDF>
  </metadata>
  <g
     inkscape:label="Layer 1"
     inkscape:groupmode="layer"
     id="layer1">
    <g
       aria-label="~"
       transform="matrix(11.082251,0,0,11.294118,-2016.883,-1395.499)"
       style="font-style:normal;font-weight:normal;font-size:40px;line-height:125%;font-family:sans-serif;letter-spacing:0px;word-spacing:0px;fill:#000000;fill-opacity:1;stroke:none;stroke-width:1px;stroke-linecap:butt;stroke-linejoin:miter;stroke-opacity:1"
       id="flowRoot4531">
      <path
         style="fill:none"
         d="m 190.35156,142.38923 c -1.48626,-0.63823 -3.09753,-1.37543 -4.74853,-0.9839 -1.40047,0.3607 -2.59714,1.25088 -3.61084,2.25342 0,-1.05469 0,-2.10937 0,-3.16406 1.24324,-1.4009 3.11597,-2.17966 4.98413,-2.10846 1.90669,-0.0321 3.66196,0.79153 5.37719,1.51763 1.41889,0.64641 3.07839,1.1288 4.60381,0.55257 1.17837,-0.44178 2.20829,-1.21507 3.08174,-2.11014 0,1.05469 0,2.10937 0,3.16406 -1.20676,1.37086 -3.02169,2.14589 -4.84375,2.10938 -1.61779,0.0712 -3.16438,-0.48649 -4.61853,-1.13498 l -0.11154,-0.0472 z"
         id="path4556"
         inkscape:connector-curvature="0" />
      <text
         xml:space="preserve"
         style="font-style:normal;font-weight:normal;font-size:2.99848795px;line-height:125%;font-family:sans-serif;letter-spacing:0px;word-spacing:0px;fill:#000000;fill-opacity:1;stroke:none;stroke-width:0.0749622px;stroke-linecap:butt;stroke-linejoin:miter;stroke-opacity:1"
         id="text4768"
         x="27.489796"
         y="-12.382657"
         transform="matrix(-0.96919938,-0.44548943,0.42627928,-0.89293793,311.11216,351.96744)"><textPath
           xlink:href="#path4556"
           id="textPath4770"><tspan
   style="stroke-width:0.0749622px"
   id="tspan4766"><tspan
     style="stroke-width:0.0749622px"
     id="tspan4764"
     y="130.93875"
     x="200.37152">L O G O</tspan></tspan></textPath></text>
    </g>
    <path
       style="opacity:1;fill:#aa0000;fill-opacity:1;fill-rule:nonzero;stroke:none;stroke-width:1.06419098;stroke-miterlimit:4;stroke-dasharray:none;stroke-opacity:1"
       d="M 377.95312,366.61328 A 377.95276,377.95276 0 0 0 1.1464844,721.6582 C 55.486697,662.46214 122.72873,632.84766 202.88477,632.84766 c 15.8162,0 30.54112,0.83451 44.17578,2.50195 13.63466,1.11163 27.81363,3.61322 42.53906,7.50391 15.27082,3.33487 31.90655,8.61427 49.9043,15.83984 18.54313,6.66975 40.63051,15.56343 66.26367,26.67969 20.17929,8.893 37.63199,16.39582 52.35742,22.50976 15.27082,6.11394 29.17877,11.11712 41.72266,15.00781 13.08927,3.33488 25.08641,5.83647 35.99414,7.50391 10.90772,1.11163 22.36087,1.66602 34.35937,1.66602 15.27082,0 31.08763,-2.50159 47.44922,-7.50391 16.36159,-5.55813 32.45137,-12.78277 48.26758,-21.67578 16.36159,-9.44882 32.17645,-20.28774 47.44726,-32.51563 10.17676,-8.14889 19.85851,-16.67698 29.06641,-25.5664 A 377.95276,377.95276 0 0 0 377.95312,366.61328 Z"
       id="path4536"
       inkscape:connector-curvature="0"
       transform="scale(0.26458333)" />
    <path
       style="opacity:1;fill:#ff6600;fill-opacity:1;fill-rule:nonzero;stroke:none;stroke-width:1.06419098;stroke-miterlimit:4;stroke-dasharray:none;stroke-opacity:1"
       d="m 186.52344,757.07227 c -15.27082,0 -31.08763,2.77976 -47.44922,8.33789 -16.36159,5.00231 -32.72435,12.22696 -49.085939,21.67578 -15.816204,8.893 -31.358088,19.45375 -46.628906,31.68164 -10.310843,8.25625 -20.241713,16.90154 -29.806641,25.91797 A 377.95276,377.95276 0 0 0 377.95312,1122.5195 377.95276,377.95276 0 0 0 754.75977,767.49023 c -53.80412,59.18715 -121.04673,88.79493 -201.73829,88.79493 -15.8162,0 -30.54112,-0.55635 -44.17578,-1.66797 -13.63466,-1.66744 -28.0866,-4.16708 -43.35742,-7.50196 -14.72543,-3.89069 -31.36116,-9.17204 -49.9043,-15.84179 -17.99775,-7.22557 -39.81215,-16.39546 -65.44531,-27.51172 -20.17929,-8.89301 -37.90496,-16.39778 -53.17578,-22.51172 -14.72543,-6.11394 -28.36041,-10.837 -40.9043,-14.17188 -11.9985,-3.89069 -23.72266,-6.39228 -35.17578,-7.5039 -10.90772,-1.66744 -22.36087,-2.50195 -34.35937,-2.50195 z"
       id="path4499"
       inkscape:connector-curvature="0"
       transform="scale(0.26458333)" />
  </g>
</svg>
