<?xml version="1.0" encoding="UTF-8" standalone="no"?>
<!-- Created with Inkscape (http://www.inkscape.org/) -->

<svg
   xmlns:dc="http://purl.org/dc/elements/1.1/"
   xmlns:cc="http://creativecommons.org/ns#"
   xmlns:rdf="http://www.w3.org/1999/02/22-rdf-syntax-ns#"
   xmlns:svg="http://www.w3.org/2000/svg"
   xmlns="http://www.w3.org/2000/svg"
   xmlns:sodipodi="http://sodipodi.sourceforge.net/DTD/sodipodi-0.dtd"
   xmlns:inkscape="http://www.inkscape.org/namespaces/inkscape"
   width="210mm"
   height="297mm"
   viewBox="0 0 210 297"
   version="1.1"
   id="svg8"
   enable-background="new"
   inkscape:version="0.92.1 r15371"
   sodipodi:docname="logo.svg">
  <defs
     id="defs2" />
  <sodipodi:namedview
     id="base"
     pagecolor="#ffffff"
     bordercolor="#666666"
     borderopacity="1.0"
     inkscape:pageopacity="0.0"
     inkscape:pageshadow="2"
     inkscape:zoom="0.35"
     inkscape:cx="-92.857143"
     inkscape:cy="448.57074"
     inkscape:document-units="mm"
     inkscape:current-layer="layer1"
     showgrid="false"
     inkscape:window-width="1440"
     inkscape:window-height="841"
     inkscape:window-x="0"
     inkscape:window-y="0"
     inkscape:window-maximized="1" />
  <metadata
     id="metadata5">
    <rdf:RDF>
      <cc:Work
         rdf:about="">
        <dc:format>image/svg+xml</dc:format>
        <dc:type
           rdf:resource="http://purl.org/dc/dcmitype/StillImage" />
        <dc:title></dc:title>
      </cc:Work>
    </rdf:RDF>
  </metadata>
  <g
     inkscape:label="Layer 1"
     inkscape:groupmode="layer"
     id="layer1">
    <path
       style="opacity:1;fill:#7b0000;fill-opacity:1;fill-rule:nonzero;stroke:none;stroke-width:1.55872691;stroke-miterlimit:4;stroke-dasharray:none;stroke-opacity:1"
       d="M 340.1582,442.20508 A 340.15748,340.15748 0 0 0 0.75390625,767.31055 C 49.708432,727.69751 110.31921,707.88281 182.5957,707.88281 c 14.23459,0 27.48662,0.55635 39.75782,1.66797 12.27119,0.74109 25.03422,2.40816 38.2871,5.00195 13.74374,2.22326 28.71414,5.74351 44.91211,10.56055 16.68883,4.4465 36.56883,10.37627 59.63868,17.78711 18.16136,5.92867 33.8682,10.9299 47.12109,15.00586 13.74374,4.07596 26.25933,7.41011 37.54883,10.00391 11.78034,2.22325 22.57953,3.89228 32.39648,5.0039 9.81696,0.74109 20.12518,1.11133 30.92383,1.11133 13.74374,0 27.97769,-1.66708 42.70313,-5.00195 14.72543,-3.70542 29.20486,-8.5225 43.43945,-14.45117 14.72543,-6.29922 28.96134,-13.52582 42.70508,-21.67774 10.83007,-6.42372 21.03947,-13.19852 30.65039,-20.3125 A 340.15748,340.15748 0 0 0 340.1582,442.20508 Z"
       transform="scale(0.26458333)"
       id="path6685"
       inkscape:connector-curvature="0" />
    <path
       style="opacity:1;fill:#ff5500;fill-opacity:1;fill-rule:nonzero;stroke:none;stroke-width:1.55872691;stroke-miterlimit:4;stroke-dasharray:none;stroke-opacity:1"
       d="m 167.86914,790.69922 c -13.74374,0 -27.97769,1.85317 -42.70312,5.55859 -14.72544,3.33488 -29.450353,8.15196 -44.175786,14.45117 -14.234584,5.92868 -28.225013,12.96918 -41.96875,21.1211 -10.917003,6.47528 -21.359758,13.30771 -31.3476559,20.48437 A 340.15748,340.15748 0 0 0 340.1582,1122.5195 340.15748,340.15748 0 0 0 679.56055,797.41797 c -48.46995,39.60917 -109.08051,59.42383 -181.8418,59.42383 -14.23458,0 -27.48662,-0.3722 -39.75781,-1.11328 -12.2712,-1.11163 -25.27775,-2.77871 -39.02149,-5.00196 -13.25289,-2.59379 -28.22524,-6.11404 -44.91406,-10.56054 -16.19797,-4.81705 -35.83055,-10.93096 -58.90039,-18.3418 -18.16137,-5.92867 -34.11564,-10.9299 -47.85938,-15.00586 -13.25288,-4.07596 -25.523,-7.22597 -36.8125,-9.44922 -10.79865,-2.59379 -21.35235,-4.26087 -31.66015,-5.00195 -9.81696,-1.11163 -20.12518,-1.66797 -30.92383,-1.66797 z"
       transform="scale(0.26458333)"
       id="path6616"
       inkscape:connector-curvature="0" />
    <flowRoot
       xml:space="preserve"
       id="flowRoot6618"
       style="font-style:normal;font-weight:normal;font-size:40px;line-height:125%;font-family:sans-serif;letter-spacing:0px;word-spacing:0px;fill:#000000;fill-opacity:1;stroke:none;stroke-width:1px;stroke-linecap:butt;stroke-linejoin:miter;stroke-opacity:1"
       transform="scale(0.26458333)"><flowRegion
         id="flowRegion6620"><rect
           id="rect6622"
           width="882.85712"
           height="180"
           x="-8.5714283"
           y="-37.480316" /></flowRegion><flowPara
         id="flowPara6624" /></flowRoot>    <g
       aria-label="~"
       transform="matrix(2.0779221,0,0,1.5686275,69.142589,240.72682)"
       style="font-style:normal;font-weight:normal;font-size:40px;line-height:125%;font-family:sans-serif;letter-spacing:0px;word-spacing:0px;fill:none;fill-opacity:1;stroke:none;stroke-width:1px;stroke-linecap:butt;stroke-linejoin:miter;stroke-opacity:1"
       id="flowRoot6634-3">
      <path
         d="m 6.8300781,-14.818036 q -3.46875,-1.5 -6.09374998,-2.53125 -2.53125002,-1.03125 -4.68750002,-1.59375 -2.0625,-0.65625 -4.03125,-0.84375 -1.875,-0.28125 -3.9375001,-0.28125 -2.625,0 -5.4375,0.9375 -2.8125,0.84375 -5.625,2.4375 -2.71875,1.5 -5.34375,3.5625 -2.625,2.0625 -4.96875,4.4062501 V -23.911786 q 9.375,-10.125 23.25,-10.125 2.7187501,0 5.0625001,0.28125 2.34375,0.1875 4.87500003,0.84375 2.62499997,0.5625 5.71874997,1.78125 3.1875,1.125 7.5937499,3 3.46875,1.5 6,2.53125 2.625,1.03125 4.78125,1.6875 2.25,0.5625 4.125,0.84375 1.875,0.1875 3.9375,0.1875 2.625,0 5.4375,-0.84375 2.8125,-0.9375 5.53125,-2.4375 2.8125,-1.59375 5.4375,-3.65625 2.625,-2.0625 4.875,-4.40625 v 15.1875 q -9.28125,10.1250001 -23.25,10.1250001 -2.71875,0 -5.0625,-0.1875 -2.34375,-0.28125 -4.96875,-0.84375 -2.53125,-0.6562501 -5.71875,-1.7812501 -3.09375,-1.21875 -7.4999999,-3.09375 z"
         style="font-size:192px;fill:none"
         id="path6714"
         inkscape:connector-curvature="0" />
    </g>
  </g>
</svg>
